<svg width="20" height="20" viewBox="0 0 20 20" fill="none" xmlns="http://www.w3.org/2000/svg">
<path d="M14.3184 12.6997H13.4699L13.1692 12.4064C14.2581 11.1289 14.8566 9.49793 14.8554 7.81118C14.8554 6.41461 14.446 5.0494 13.6789 3.8882C12.9118 2.727 11.8216 1.82195 10.546 1.2875C9.2704 0.753059 7.86678 0.613225 6.51263 0.885682C5.15848 1.15814 3.91461 1.83065 2.93832 2.81817C1.96203 3.8057 1.29717 5.06388 1.02781 6.43361C0.758457 7.80335 0.896701 9.22311 1.42507 10.5134C1.95343 11.8036 2.84818 12.9064 3.99618 13.6823C5.14417 14.4582 6.49384 14.8724 7.87453 14.8724C9.60363 14.8724 11.1931 14.2314 12.4174 13.1668L12.7074 13.471V14.3292L18.0773 19.75L19.6775 18.1314L14.3184 12.6997ZM7.87453 12.6997C5.20032 12.6997 3.04163 10.5162 3.04163 7.81118C3.04163 5.10621 5.20032 2.92267 7.87453 2.92267C10.5487 2.92267 12.7074 5.10621 12.7074 7.81118C12.7074 10.5162 10.5487 12.6997 7.87453 12.6997Z" fill="white"/>
</svg>
